<?xml version="1.0" encoding="UTF-8"?>
<svg width="100px" height="119px" viewBox="0 0 100 119" version="1.1" xmlns="http://www.w3.org/2000/svg" xmlns:xlink="http://www.w3.org/1999/xlink">
    <!-- Generator: Sketch 49.3 (51167) - http://www.bohemiancoding.com/sketch -->
    <title>assets/icons/android_white</title>
    <desc>Created with Sketch.</desc>
    <defs></defs>
    <g id="assets/icons/android_white" stroke="none" stroke-width="1" fill="none" fill-rule="evenodd">
        <g id="android" fill="#FFFEFC" fill-rule="nonzero">
            <path d="M7.41449893,38.1963753 C5.38272921,38.1963753 3.65884861,38.9049041 2.24179104,40.3219616 C0.824733475,41.7390192 0.115991471,43.4394456 0.115991471,45.4240938 L0.115991471,75.896162 C0.115991471,77.9304904 0.824520256,79.6528785 2.24179104,81.0701493 C3.65884861,82.4872068 5.38272921,83.1959488 7.41449893,83.1959488 C9.44477612,83.1959488 11.158209,82.48742 12.5533049,81.0701493 C13.945629,79.6530917 14.64371,77.9304904 14.64371,75.896162 L14.64371,45.4240938 C14.64371,43.4392324 13.9351812,41.7390192 12.5179104,40.3219616 C11.1006397,38.9049041 9.39914712,38.1963753 7.41449893,38.1963753 Z" id="Shape"></path>
            <path d="M66.0921109,10.8415778 L71.1236674,1.55970149 C71.4539446,0.945202559 71.3364606,0.473987207 70.7701493,0.142643923 C70.1554371,-0.143070362 69.6831557,0.00170575693 69.3530917,0.56673774 L64.2511727,9.9228145 C59.7618337,7.93795309 55.0136461,6.94371002 50.0066098,6.94371002 C44.9985075,6.94371002 40.2498934,7.93816631 35.7622601,9.9228145 L30.6601279,0.56673774 C30.3285714,0.00170575693 29.85629,-0.141791045 29.2430704,0.142643923 C28.6754797,0.475479744 28.5579957,0.945202559 28.8895522,1.55970149 L33.921322,10.8415778 C28.8191898,13.4434968 24.7556503,17.0671642 21.7321962,21.7204691 C18.708742,26.3763326 17.1963753,31.4641791 17.1963753,36.9929638 L82.745629,36.9929638 C82.745629,31.4654584 81.233049,26.3773987 78.2098081,21.7204691 C75.1861407,17.0671642 71.1460554,13.4434968 66.0921109,10.8415778 Z M37.001919,24.3422175 C36.4577825,24.8876333 35.8078891,25.1590618 35.052452,25.1590618 C34.2955224,25.1590618 33.6588486,24.8876333 33.1394456,24.3422175 C32.6200426,23.7993603 32.3603412,23.1520256 32.3603412,22.3940299 C32.3603412,21.6385928 32.6200426,20.9899787 33.1394456,20.4458422 C33.6588486,19.9029851 34.2970149,19.6315565 35.052452,19.6315565 C35.8078891,19.6315565 36.4577825,19.9029851 37.001919,20.4458422 C37.5447761,20.991258 37.817484,21.6385928 37.817484,22.3940299 C37.8159915,23.1507463 37.5434968,23.7993603 37.001919,24.3422175 Z M66.8710021,24.3422175 C66.350533,24.8876333 65.7123667,25.1590618 64.958209,25.1590618 C64.2010661,25.1590618 63.5513859,24.8876333 63.0083156,24.3422175 C62.4643923,23.7993603 62.1929638,23.1520256 62.1929638,22.3940299 C62.1929638,21.6385928 62.4643923,20.9899787 63.0083156,20.4458422 C63.5513859,19.9029851 64.2010661,19.6315565 64.958209,19.6315565 C65.7136461,19.6315565 66.3503198,19.9029851 66.8710021,20.4458422 C67.3908316,20.991258 67.6501066,21.6385928 67.6501066,22.3940299 C67.6501066,23.1507463 67.3906183,23.7993603 66.8710021,24.3422175 Z" id="Shape"></path>
            <path d="M17.4778252,86.7385928 C17.4778252,88.9138593 18.2332623,90.7552239 19.7443497,92.2663113 C21.2567164,93.7773987 23.098081,94.5328358 25.271855,94.5328358 L30.5162047,94.5328358 L30.5880597,110.621109 C30.5880597,112.652665 31.2965885,114.377825 32.7136461,115.795096 C34.1307036,117.212367 35.8324094,117.920896 37.8157783,117.920896 C39.8462687,117.920896 41.5712154,117.212367 42.9884861,115.795096 C44.4057569,114.377825 45.1142857,112.652878 45.1142857,110.621109 L45.1142857,94.5343284 L54.8933902,94.5343284 L54.8933902,110.621109 C54.8933902,112.652665 55.6017058,114.377825 57.0189765,115.795096 C58.4362473,117.212367 60.1597015,117.920896 62.1916844,117.920896 C64.2221748,117.920896 65.9471215,117.212367 67.3643923,115.795096 C68.7816631,114.377825 69.4899787,112.652878 69.4899787,110.621109 L69.4899787,94.5343284 L74.8051173,94.5343284 C76.9307036,94.5343284 78.7484009,93.778678 80.2622601,92.2675906 C81.7731343,90.7565032 82.5289979,88.9151386 82.5289979,86.7400853 L82.5289979,39.5415778 L17.4778252,39.5415778 L17.4778252,86.7385928 Z" id="Shape"></path>
            <path d="M92.5959488,38.1963753 C90.6110874,38.1963753 88.9108742,38.8944563 87.4936034,40.2867804 C86.0765458,41.6816631 85.3680171,43.3950959 85.3680171,45.4240938 L85.3680171,75.896162 C85.3680171,77.9304904 86.0763326,79.6528785 87.4936034,81.0701493 C88.9108742,82.48742 90.6123667,83.1959488 92.5959488,83.1959488 C94.6264392,83.1959488 96.3513859,82.48742 97.7686567,81.0701493 C99.1859275,79.6528785 99.8942431,77.9304904 99.8942431,75.896162 L99.8942431,45.4240938 C99.8942431,43.3948827 99.1859275,41.6816631 97.7686567,40.2867804 C96.3513859,38.8944563 94.6264392,38.1963753 92.5959488,38.1963753 Z" id="Shape"></path>
        </g>
    </g>
</svg>