<?xml version="1.0" encoding="UTF-8"?>
<svg width="100px" height="100px" viewBox="0 0 100 100" version="1.1" xmlns="http://www.w3.org/2000/svg" xmlns:xlink="http://www.w3.org/1999/xlink">
    <!-- Generator: Sketch 49.3 (51167) - http://www.bohemiancoding.com/sketch -->
    <title>assets/icons/Apple_white</title>
    <desc>Created with Sketch.</desc>
    <defs></defs>
    <g id="assets/icons/Apple_white" stroke="none" stroke-width="1" fill="none" fill-rule="evenodd">
        <g id="apple-logo" transform="translate(10.000000, 0.000000)" fill="#FFFEFC" fill-rule="nonzero">
            <path d="M82,73.4457888 C81.7277398,74.2054182 81.4639878,75.0211088 81.1605312,75.8227841 C78.6477969,82.547326 74.8333187,88.5178447 70.2048962,93.9894186 C69.3115426,95.0545815 68.2707147,96.0188343 67.1958543,96.9130106 C65.0716579,98.6901509 62.6269887,99.763723 59.7994535,99.8618301 C57.6752572,99.9291036 55.6361421,99.5478874 53.6707641,98.7574243 C52.2470704,98.182797 50.846065,97.5408961 49.402519,97.0223299 C44.7173756,95.3404937 40.0577566,95.5619355 35.4491863,97.3615003 C33.787265,98.0118103 32.148032,98.7293937 30.4549142,99.2928089 C28.4923723,99.9431189 26.4560932,100.206607 24.3829456,99.8197842 C22.57355,99.48622 20.9910379,98.6537111 19.5219675,97.580139 C17.6983917,96.2458822 16.1669283,94.6201072 14.7347265,92.8990281 C7.95374713,84.7253039 3.40189774,75.4836138 1.20396423,65.1319117 C0.256725788,60.6806517 -0.19704113,56.192952 0.0808911076,51.643585 C0.40703608,46.1888294 1.68892762,40.9947585 4.63841259,36.3136476 C8.33944901,30.4300238 13.5606046,26.5758157 20.4295013,24.9864805 C24.5616163,24.0250308 28.5802896,24.4174592 32.5195536,25.9170965 C34.5927013,26.7019535 36.6715209,27.4784012 38.7531767,28.2492428 C40.6703419,28.9612201 42.578999,28.9612201 44.4990003,28.2352275 C46.6231967,27.4335522 48.7502291,26.63468 50.8829336,25.8526262 C53.0695229,25.0649662 55.2929808,24.4202623 57.6128642,24.2380634 C61.0841811,23.9605604 64.4704168,24.406247 67.765899,25.4966375 C72.4368622,27.0411238 76.2371601,29.7741077 79.1072359,33.7544534 C79.1838091,33.8637728 79.2688904,33.9843044 79.3256112,34.0711993 C72.0880289,39.0578437 67.9672581,45.6450357 68.5656632,54.5643739 C69.1697404,63.4893183 74.0307185,69.5271104 82,73.4457888 Z M41.4020411,23.1336576 C43.5375816,23.1897188 45.5908769,22.783275 47.5675991,22.0068273 C56.5833805,18.469365 61.2968844,9.04267288 61.1550822,1.83320151 C61.143738,1.252968 61.1040334,0.672734498 61.078509,0 C60.1511229,0.13734996 59.305982,0.201820349 58.4948737,0.403640699 C51.9124173,1.99858207 46.8472441,5.6285453 43.5177293,11.506563 C41.5693676,14.9487212 40.4859991,18.6039119 40.8178162,22.598273 C40.8405045,23.0215351 40.9964869,23.1280514 41.4020411,23.1336576 Z" id="Shape"></path>
        </g>
    </g>
</svg>