<?xml version="1.0" encoding="UTF-8"?>
<svg viewBox="0 0 104 96" version="1.1" xmlns="http://www.w3.org/2000/svg" xmlns:xlink="http://www.w3.org/1999/xlink">
    <!-- Generator: Sketch 49.3 (51167) - http://www.bohemiancoding.com/sketch -->
    <title>atoms/icons/Profil Black</title>
    <desc>Created with Sketch.</desc>
    <defs></defs>
    <g id="atoms/icons/Profil-Black" stroke="#000" stroke-width="1" fill="none" fill-rule="evenodd">
        <g id="Profil" transform="translate(0.000000, 7.000000)" fill="#1A1A1A" fill-rule="nonzero">
            <path d="M102.569795,16.2319609 C102.569795,16.2319609 94.1608815,10.2009775 86.9581642,5.13495154 C80.1259216,0.275702096 74.1380167,0 72.7508906,0 L65.1690829,0 L64.6866043,1.01665148 C62.3621027,5.89384487 57.441577,9.00101607 52.0387706,9.00339657 C46.632852,9.00433754 41.708162,5.89665368 39.3823213,1.01665148 L38.8998426,0 L31.1457211,0 C30.00845,0 23.994698,0.249855024 17.1107613,5.1694143 C9.90804407,10.2268246 1.49913015,16.2319609 1.49913015,16.2319609 L0,17.3003065 L13.5524812,35.1347859 L25.6144479,26.7947974 L25.6144479,75.9042333 L26.0366167,76.4039433 C26.5794052,77.0587358 31.9211333,82.7450915 51.0996603,82.7450915 L52.9003397,82.7450915 C72.0788667,82.7450915 77.4205948,77.0587358 77.9633833,76.4039433 L78.3855521,75.9042333 L78.3855521,26.7947974 L90.4475188,35.1347859 L104,17.3003065 L102.569795,16.2319609 Z M67.3833154,3.58412725 L71.4068428,3.58412725 L71.4068428,76.3522492 C68.9088327,77.3275043 66.3070779,78.0126331 63.6527214,78.3941678 L63.6527214,8.06428631 C65.1336902,6.78574837 66.3940743,5.2721231 67.3833154,3.58412725 Z M40.9331456,8.45199238 L40.9331456,78.4803247 C38.0567538,78.102458 35.238134,77.3703114 32.541463,76.300555 L32.541463,3.58412725 L36.6942258,3.58412725 C37.7953811,5.45393641 39.2324658,7.10424709 40.9331456,8.45199238 Z M14.336509,30.2410736 L5.09187308,18.09295 C7.82304697,16.1371883 13.8367989,11.8551901 19.178527,8.072902 C21.1897065,6.64032109 23.4021369,5.51378171 25.7436832,4.73001408 L25.7436832,22.4007953 L14.336509,30.2410736 Z M51.1341231,79.1868114 C49.9106951,79.1868114 48.8423494,79.1265015 47.739541,79.0834231 L47.739541,12.0102726 C49.1464679,12.3781937 50.5932302,12.5720599 52.0473863,12.5875238 C53.6764682,12.5836231 55.2971936,12.3545761 56.8635573,11.9068843 L56.8635573,79.0661917 C55.6228979,79.1265015 54.3736227,79.1868114 52.9692652,79.1868114 L51.1341231,79.1868114 Z M89.7324165,30.2410736 L78.2132383,22.297407 L78.2132383,4.66970425 C80.5973969,5.45416076 82.8487363,6.59580775 84.8903985,8.05567062 C90.2407423,11.8379587 96.2458786,16.1199569 98.9770524,18.0757187 L89.7324165,30.2410736 Z" id="Shape"></path>
        </g>
    </g>
</svg>
