<?xml version="1.0" encoding="UTF-8"?>
<svg viewBox="0 0 104 96" version="1.1" xmlns="http://www.w3.org/2000/svg" xmlns:xlink="http://www.w3.org/1999/xlink">
    <!-- Generator: Sketch 49.3 (51167) - http://www.bohemiancoding.com/sketch -->
    <title>atoms/icons/blue/Buisness</title>
    <desc>Created with Sketch.</desc>
    <defs></defs>
    <g id="atoms/icons/blue/Buisness" stroke="none" stroke-width="1" fill="none" fill-rule="evenodd">
        <g id="Buisness" transform="translate(5.000000, 6.000000)" fill="#1E92FE" fill-rule="nonzero">
            <path d="M89.9492492,15.8110008 L59.6885886,15.8110008 L59.6885886,4.70521044 C59.6847029,2.10829975 57.6964595,0.00411229703 55.2426426,0 L38.7573574,0 C36.3035405,0.00411229703 34.3152971,2.10829975 34.3114114,4.70521044 L34.3114114,15.8110008 L4.05075075,15.8110008 C1.8151939,15.8151119 0.00388455588,17.7320474 0,20.0979703 L0,80.7130305 C0.00388455588,83.0789534 1.8151939,84.9958889 4.05075075,85 L89.9492492,85 C92.1848061,84.9958889 93.9961154,83.0789534 94,80.7130305 L94,20.0979703 C93.9961154,17.7320474 92.1848061,15.8151119 89.9492492,15.8110008 Z M38.7573574,4.70521044 L55.2426426,4.70521044 L55.2426426,15.8110008 L38.7573574,15.8110008 L38.7573574,4.70521044 Z M89.8151652,20.0979703 L89.8151652,37.1039452 L78.9261261,49.8005448 L74.4731231,49.8005448 L74.4731231,46.6488006 C74.4692521,45.4955614 73.5868411,44.5616928 72.4971471,44.557596 L65.0237237,44.557596 C63.9340298,44.5616928 63.0516188,45.4955614 63.0477477,46.6488006 L63.0477477,49.8229505 L31.3897898,49.8229505 L31.3897898,46.6488006 C31.3859187,45.4955614 30.5035077,44.5616928 29.4138138,44.557596 L21.9403904,44.557596 C20.851846,44.5617104 19.9714645,45.4967706 19.9714715,46.6488006 L19.9714715,49.8229505 L15.0738739,49.8229505 L4.08603604,36.9919164 L4.08603604,20.2324049 L89.8151652,20.0979703 Z M70.2388889,53.3107811 L71.0998498,57.9188999 L66.421021,57.9188999 L67.281982,53.3107811 L67.3948949,53.3107811 C66.6931872,52.8694741 66.2497939,52.0827081 66.2163664,51.2195765 C66.2876528,49.7876401 67.4055244,48.6652702 68.7604354,48.6652702 C70.1153465,48.6652702 71.2332181,49.7876401 71.3045045,51.2195765 C71.271077,52.0827081 70.8276837,52.8694741 70.125976,53.3107811 L70.2388889,53.3107811 Z M27.1908408,53.3107811 L28.0518018,57.9188999 L23.3376877,57.9188999 L24.1986486,53.3107811 L24.3115616,53.3107811 C23.6098539,52.8694741 23.1664606,52.0827081 23.133033,51.2195765 C23.2043194,49.7876401 24.322191,48.6652702 25.6771021,48.6652702 C27.0320132,48.6652702 28.1498848,49.7876401 28.2211712,51.2195765 C28.1916262,52.0839261 27.747208,52.8725106 27.0426426,53.3107811 L27.1908408,53.3107811 Z M89.8504505,80.5785959 L4.22012012,80.7130305 L4.10015015,43.6090853 L12.5686186,53.5199016 C12.962661,53.9862956 13.5230152,54.2570861 14.1141141,54.2667604 L19.9714715,54.2667604 L19.9714715,60.1221334 C19.9695954,60.6760674 20.176206,61.2079946 20.5456535,61.6003877 C20.9151009,61.9927808 21.4169756,62.2133416 21.9403904,62.213338 L29.4138138,62.213338 C30.5051152,62.213338 31.3897898,61.2770738 31.3897898,60.1221334 L31.3897898,54.2518232 L63.0477477,54.2518232 L63.0477477,60.1071962 C63.0477477,61.2621366 63.9324223,62.1984008 65.0237237,62.1984008 L72.4971471,62.1984008 C73.5884485,62.1984008 74.4731231,61.2621366 74.4731231,60.1071962 L74.4731231,54.2518232 L79.8576577,54.2518232 C80.4487566,54.2421489 81.0091108,53.9713584 81.4031532,53.5049644 L89.8151652,43.6837712 L89.8504505,80.5785959 Z" id="Shape"></path>
        </g>
    </g>
</svg>
