<?xml version="1.0" encoding="UTF-8"?>
<svg viewBox="0 0 104 96" version="1.1" xmlns="http://www.w3.org/2000/svg" xmlns:xlink="http://www.w3.org/1999/xlink">
    <!-- Generator: Sketch 49.3 (51167) - http://www.bohemiancoding.com/sketch -->
    <title>atoms/icons/red/Hjärta</title>
    <desc>Created with Sketch.</desc>
    <defs></defs>
    <g id="atoms/icons/red/Hjärta" stroke="none" stroke-width="1" fill="none" fill-rule="evenodd">
        <g id="Hjärta" transform="translate(10.000000, 9.000000)" fill="#E91217" fill-rule="nonzero">
            <path d="M42.0000163,77.3358726 C41.4576665,77.3376515 40.9326023,77.1420797 40.5198248,76.7845425 C38.1016161,74.8157904 35.5847655,72.9755616 32.9793729,71.2712406 C20.0373846,62.3475678 -1.63075879,47.422272 0.0974228831,22.6990513 C0.980887956,9.9712002 11.0012418,0 22.9047712,0 C30.9954513,0 38.0786713,3.59152235 42.0000163,9.4513746 C45.9213613,3.59152235 52.9735825,0 61.0875117,0 C72.9987908,0 83.0191446,9.9712002 83.9026097,22.6990513 C85.6307914,47.422272 63.9548983,62.3475678 51.01291,71.2712406 C48.4101235,72.9794486 45.8934645,74.8195374 43.4724581,76.7845425 C43.0627653,77.1421509 42.5400669,77.3378662 42.0000163,77.3358726 Z M22.9047712,4.59966897 C13.5353916,4.59966897 5.32071638,12.8696217 4.64649304,23.0219733 C3.09655431,45.0751807 22.6335319,58.5512656 35.5600209,67.45131 C38.0321732,69.1604336 40.2098371,70.6805297 42.0310151,72.0746074 C43.8134446,70.6805297 46.029857,69.1604336 48.5020092,67.45131 C61.4207485,58.5512656 80.9499764,45.0988091 79.4155371,23.0219733 C78.710315,12.8696217 70.5033894,4.59966897 61.1185104,4.59966897 C53.1285763,4.59966897 46.4715895,8.78190223 44.1544311,15.2482177 C43.5034568,17.0754834 40.5508236,17.0754834 39.8998493,15.2482177 C37.5516921,8.78190223 30.902455,4.59966897 22.9047712,4.59966897 Z" id="Shape"></path>
        </g>
    </g>
</svg>
