<?xml version="1.0" encoding="UTF-8"?>
<svg viewBox="0 0 104 96" version="1.1" xmlns="http://www.w3.org/2000/svg" xmlns:xlink="http://www.w3.org/1999/xlink">
    <!-- Generator: Sketch 49.3 (51167) - http://www.bohemiancoding.com/sketch -->
    <title>atoms/icons/Hjärta Black</title>
    <desc>Created with Sketch.</desc>
    <defs></defs>
    <g id="atoms/icons/Hjärta-Black" stroke="#000" stroke-width="1" fill="none" fill-rule="evenodd">
        <g id="Hjärta" transform="translate(10.000000, 9.000000)" fill="#1A1A1A" fill-rule="nonzero">
            <path d="M42.0000163,76.999985 C41.4576665,77.0017561 40.9326023,76.8070337 40.5198248,76.4510494 C38.1016161,74.4908481 35.5847655,72.6586117 32.9793729,70.9616931 C20.0373846,62.0767778 -1.63075879,47.2163061 0.0974228831,22.6004641 C0.980887956,9.92789296 11.0012418,0 22.9047712,0 C30.9954513,0 38.0786713,3.57592353 42.0000163,9.41032508 C45.9213613,3.57592353 52.9735825,0 61.0875117,0 C72.9987908,0 83.0191446,9.92789296 83.9026097,22.6004641 C85.6307914,47.2163061 63.9548983,62.0767778 51.01291,70.9616931 C48.4101235,72.6624819 45.8934645,74.4945787 43.4724581,76.4510494 C43.0627653,76.8071046 42.5400669,77.0019699 42.0000163,76.999985 Z M22.9047712,4.57969154 C13.5353916,4.57969154 5.32071638,12.813726 4.64649304,22.9219835 C3.09655431,44.8794087 22.6335319,58.2969639 35.5600209,67.1583533 C38.0321732,68.8600538 40.2098371,70.3735477 42.0310151,71.7615707 C43.8134446,70.3735477 46.029857,68.8600538 48.5020092,67.1583533 C61.4207485,58.2969639 80.9499764,44.9029345 79.4155371,22.9219835 C78.710315,12.813726 70.5033894,4.57969154 61.1185104,4.57969154 C53.1285763,4.57969154 46.4715895,8.74376039 44.1544311,15.1819911 C43.5034568,17.0013206 40.5508236,17.0013206 39.8998493,15.1819911 C37.5516921,8.74376039 30.902455,4.57969154 22.9047712,4.57969154 Z" id="Shape"></path>
        </g>
    </g>
</svg>
