<?xml version="1.0" encoding="UTF-8"?>
<svg viewBox="0 0 104 96" version="1.1" xmlns="http://www.w3.org/2000/svg" xmlns:xlink="http://www.w3.org/1999/xlink">
    <!-- Generator: Sketch 49.3 (51167) - http://www.bohemiancoding.com/sketch -->
    <title>atoms/icons/Utbildning Black</title>
    <desc>Created with Sketch.</desc>
    <defs></defs>
    <g id="atoms/icons/Utbildning-Black" stroke="#000" stroke-width="1" fill="none" fill-rule="evenodd">
        <g id="Utbildning" transform="translate(7.000000, 6.000000)" fill="#1A1A1A" fill-rule="nonzero">
            <path d="M19.1204768,57.5708502 L40.8795232,57.5708502 C41.7630852,57.4839224 42.4390244,56.6942673 42.4390244,55.7489879 C42.4390244,54.8037084 41.7630852,54.0140533 40.8795232,53.9271255 L19.1204768,53.9271255 C18.2369148,54.0140533 17.5609756,54.8037084 17.5609756,55.7489879 C17.5609756,56.6942673 18.2369148,57.4839224 19.1204768,57.5708502 Z" id="Shape"></path>
            <path d="M75.8083686,68.5929496 C75.9842071,59.0365886 77.5374471,50.201875 79.0467275,41.6222893 C80.6292739,32.6126309 82.2704331,23.3041084 82.3290459,12.8292871 C82.3290459,5.63468119 78.4972322,0 73.6030609,0 L8.72598502,0 C3.83181374,0.0291574706 0,5.66383866 0,12.8584445 L0,14.4912629 L14.550635,14.4912629 C14.3454901,23.9018365 12.8508629,32.6417883 11.3635624,41.0901654 C9.75170954,50.2674793 8.08124389,59.7509466 8.06659069,70.247636 L8.06659069,70.4007127 C8.11787691,77.5224249 11.9350374,83.0769231 16.7925757,83.0769231 L81.2666884,83.0769231 C86.1608597,83.0769231 90,77.4422419 90,70.247636 L90,68.5929496 L75.8083686,68.5929496 Z M3.3629111,11.2256262 C3.81716053,6.78640128 6.08840768,3.29479418 8.72598502,3.29479418 L67.7271247,3.29479418 C66.0738867,5.62836812 65.109533,8.37543233 64.9430153,11.2256262 L3.3629111,11.2256262 Z M16.7925757,79.7894183 C13.8619342,79.7894183 11.3562358,75.4157977 11.3489092,70.2622148 C11.3489092,60.0571 13.0047216,50.7048414 14.6019212,41.6514467 C16.1185282,33.0791504 17.6278085,24.2007006 17.8329534,14.4912629 L68.1374145,14.4912629 L68.1374145,12.8584445 C68.1374145,7.67570413 70.6357864,3.29479418 73.5884077,3.29479418 C76.541029,3.29479418 79.0320742,7.66841477 79.0467275,13.0771256 C78.9734614,23.0344018 77.3616086,32.2117156 75.7937154,41.0828761 C74.1818626,50.2601899 72.5113969,59.7509466 72.4967437,70.2403466 L72.4967437,70.3934234 C72.4423048,73.7628763 73.4688819,77.061868 75.4273852,79.8112864 L16.7925757,79.7894183 Z M81.2666884,79.7894183 C78.6217844,79.7894183 76.3505373,76.2905218 75.8962879,71.8512969 L86.6370889,71.8512969 C86.1535331,76.2905218 83.8822859,79.7894183 81.2447086,79.7894183 L81.2666884,79.7894183 Z" id="Shape"></path>
            <path d="M61.0129184,26.9745821 C60.8313122,26.9598896 60.648802,26.9598896 60.4671958,26.9745821 C58.0079301,27.4806808 56.2695606,29.6653744 56.3439583,32.1564555 C56.3052022,33.1677752 56.7195817,34.1442457 57.4757295,34.8234339 C58.2318774,35.5026221 59.252226,35.8148553 60.2625498,35.6762186 C62.7005299,35.1768525 64.4335378,33.0241855 64.3857873,30.5545121 C64.4331916,29.6317101 64.1008238,28.7293797 63.4648878,28.0544035 C62.8289519,27.3794273 61.9439957,26.989702 61.0129184,26.9745821 Z" id="Shape"></path>
            <path d="M69.2141738,33.0591696 L72.4390244,31.0950874 L69.5271955,29.1969633 L71.9658522,26.1262527 L68.4862166,25.6498895 L69.7310235,21.9342565 L66.2295492,22.9456122 L66.0985169,19.1566926 L63.0483761,21.509194 L61.5924616,18.2186235 L59.4886652,21.5458373 L56.8680191,19.2592939 L56.0381479,23.0628709 L52.682265,22.1248018 L53.2500717,25.7891342 L49.6758017,26.3461127 L51.5539313,29.3728512 L48.2926829,31.3369334 L51.2045119,33.2350575 L48.7658551,36.3057681 L52.2527703,36.7821313 L51.0079634,40.4977643 L54.538556,39.4864086 L54.5531151,40.8275542 L51.4520173,57.8227278 C51.3660415,58.265055 51.5811837,58.7112754 51.97957,58.9169103 C52.3779563,59.1225452 52.8634261,59.0379593 53.1699964,58.7094962 L58.1856217,53.4035429 L62.0729134,58.6142236 C62.2592448,58.8721144 62.5569029,59.0246714 62.8736663,59.0246288 C62.9774482,59.0218636 63.0803455,59.0045984 63.1794084,58.9733281 C63.5996458,58.8499008 63.893391,58.468414 63.9073656,58.0279304 L64.2349464,41.7802806 L64.751796,39.3984646 L68.071281,40.3365337 L67.5034743,36.6722013 L71.0850239,36.1152228 L69.2141738,33.0591696 Z M61.9346015,55.0451638 L59.0882887,51.2269295 C58.9168659,50.9896066 58.6508962,50.8396591 58.3603315,50.8165243 C58.0651241,50.8009077 57.7778959,50.9160382 57.5741377,51.1316569 L54.0581042,54.8472899 L56.4239652,41.9488399 L57.7197291,40.9521415 L59.1756436,44.242712 L61.2721604,40.9154982 L62.2039457,41.7216513 L61.9346015,55.0451638 Z M60.7917086,39.017374 C60.4470795,39.0692946 60.0991921,39.0962356 59.7507298,39.0979893 C57.9211962,39.0883726 56.1711691,38.3438991 54.8891455,37.0298381 C53.607122,35.7157771 52.8991842,33.9408618 52.9224909,32.0991145 C52.7970777,27.8506026 55.7999915,24.1584021 59.9618374,23.4439614 C64.2058281,22.8136963 67.7218615,26.0163228 67.8310551,30.3548923 C67.9569746,34.6050572 64.954674,38.2996294 60.7917086,39.017374 Z" id="Shape"></path>
            <path d="M24.286031,26.2348178 L43.0310421,26.2348178 C43.9328002,26.1722165 44.6341463,25.3751653 44.6341463,24.4129555 C44.6341463,23.4507456 43.9328002,22.6536945 43.0310421,22.5910931 L24.286031,22.5910931 C23.3842729,22.6536945 22.6829268,23.4507456 22.6829268,24.4129555 C22.6829268,25.3751653 23.3842729,26.1722165 24.286031,26.2348178 Z" id="Shape"></path>
            <path d="M22.0909091,41.5384615 L40.8359202,41.5384615 C41.7376783,41.4758602 42.4390244,40.6788091 42.4390244,39.7165992 C42.4390244,38.7543893 41.7376783,37.9573382 40.8359202,37.8947368 L22.0909091,37.8947368 C21.189151,37.9573382 20.4878049,38.7543893 20.4878049,39.7165992 C20.4878049,40.6788091 21.189151,41.4758602 22.0909091,41.5384615 Z" id="Shape"></path>
            <path d="M64.2458253,69.2307692 L19.1688089,69.2307692 C18.2643906,69.2933706 17.5609756,70.0904217 17.5609756,71.0526316 C17.5609756,72.0148414 18.2643906,72.8118926 19.1688089,72.8744939 L64.2458253,72.8744939 C65.1502435,72.8118926 65.8536585,72.0148414 65.8536585,71.0526316 C65.8536585,70.0904217 65.1502435,69.2933706 64.2458253,69.2307692 Z" id="Shape"></path>
        </g>
    </g>
</svg>
