<?xml version="1.0" encoding="UTF-8"?>
<svg width="24px" height="24px" viewBox="0 0 24 24" version="1.1" xmlns="http://www.w3.org/2000/svg" xmlns:xlink="http://www.w3.org/1999/xlink">
    <!-- Generator: Sketch 49.3 (51167) - http://www.bohemiancoding.com/sketch -->
    <title>atoms/icons/contact/black</title>
    <desc>Created with Sketch.</desc>
    <defs>
        <path d="M19.8881274,15.920099 C19.9010301,15.3876903 19.5312165,14.9512242 19.0373699,14.8815134 C18.002532,14.7450288 16.9864556,14.4919137 16.0062665,14.1261514 C15.640829,13.9887838 15.2288634,14.0766438 14.9552342,14.3472058 L13.6852342,15.6172058 C13.3669212,15.9355188 12.8751568,16.0019064 12.4838329,15.7793936 C9.82381547,14.2668659 7.6213606,12.064411 6.10883291,9.40439355 C5.88632003,9.0130697 5.95270764,8.52130527 6.27102064,8.20299226 L7.53707512,6.93695993 C7.81158265,6.65936306 7.89944262,6.24739744 7.76123017,5.87970389 C7.39631276,4.90177087 7.14319766,3.88569452 7.00796907,2.86005062 C6.93771949,2.36303436 6.5099011,1.99511054 5.99812742,2.00009905 L2.99906915,2.0000986 C2.71836627,2.00036295 2.45069892,2.11859345 2.26145204,2.32590913 C2.07220515,2.53322481 1.97880575,2.81053477 2.00253616,3.07449947 C2.31419285,6.00930431 3.31278313,8.82942736 4.92214121,11.3137776 C6.37874217,13.6060432 8.32218327,15.5494843 10.6222286,17.0110794 C13.0879999,18.6101232 15.8944746,19.6084867 18.7981357,19.924158 C19.0785676,19.9495021 19.3566895,19.8554437 19.5641746,19.6650905 C19.7716596,19.4747372 19.8892786,19.2057306 19.8881274,18.920099 L19.8881274,15.920099 Z M12.2710206,14.2029923 L13.4724219,14.0408045 C13.2526638,13.9158466 13.036445,13.7855518 12.8239339,13.6500886 L12.2710206,14.2029923 Z M21.8881192,18.9160401 C21.8915479,19.7607577 21.5386911,20.5677776 20.916236,21.1388374 C20.2937808,21.7098972 19.4594151,21.9920722 18.6001051,21.9142475 C15.367448,21.5629929 12.2622533,20.458364 9.54180594,18.6941128 C7.00172781,17.0800415 4.84818497,14.9264987 3.23884754,12.3937987 C1.46342782,9.6531787 0.358547996,6.5328829 0.0121856966,3.27009949 C-0.063604488,2.43140799 0.216593709,1.59947812 0.784334366,0.977531072 C1.35207502,0.355584021 2.15507706,0.000892524296 2.99812742,9.90455144e-05 L5.98828577,0.000147475724 C7.49408185,-0.01467276 8.77753704,1.0890987 8.98954181,2.58934156 C9.10630321,3.47463648 9.32284099,4.34388099 9.63417973,5.17823816 C10.0462822,6.27455071 9.78270234,7.51044756 8.9552342,8.34720583 L8.23814163,9.0642984 C9.4139976,10.9089472 10.9792846,12.4742334 12.8239339,13.6500886 L13.5449883,12.9290467 C14.3777789,12.1055241 15.6136758,11.8419442 16.7077323,12.2532018 C17.5443455,12.5653855 18.41359,12.7819233 19.3078197,12.8999041 C20.8116623,13.1120595 21.9189792,14.4142872 21.8881274,15.9312758 L21.8881192,18.9160401 Z" id="path-1"></path>
    </defs>
    <g id="atoms/icons/contact/black" stroke="none" stroke-width="1" fill="none" fill-rule="evenodd">
        <g id="phone" transform="translate(1.000000, 1.000000)">
            <mask id="mask-2" fill="white">
                <use xlink:href="#path-1"></use>
            </mask>
            <use id="Shape" fill="#000000" fill-rule="nonzero" xlink:href="#path-1"></use>
        </g>
    </g>
</svg>