<?xml version="1.0" encoding="UTF-8"?>
<svg width="32px" height="32px" viewBox="0 0 32 32" version="1.1" xmlns="http://www.w3.org/2000/svg" xmlns:xlink="http://www.w3.org/1999/xlink">
    <!-- Generator: Sketch 49.3 (51167) - http://www.bohemiancoding.com/sketch -->
    <title>atoms/icons/user/black</title>
    <desc>Created with Sketch.</desc>
    <defs>
        <path d="M24,26 C24,26.7363797 23.4030463,27.3333333 22.6666667,27.3333333 C21.930287,27.3333333 21.3333333,26.7363797 21.3333333,26 L21.3333333,23.3333333 C21.3333333,21.1241943 19.5424723,19.3333333 17.3333333,19.3333333 L6.66666667,19.3333333 C4.45752767,19.3333333 2.66666667,21.1241943 2.66666667,23.3333333 L2.66666667,26 C2.66666667,26.7363797 2.069713,27.3333333 1.33333333,27.3333333 C0.596953667,27.3333333 0,26.7363797 0,26 L0,23.3333333 C0,19.651435 2.98476833,16.6666667 6.66666667,16.6666667 L17.3333333,16.6666667 C21.0152317,16.6666667 24,19.651435 24,23.3333333 L24,26 Z M12,14 C8.31810167,14 5.33333333,11.0152317 5.33333333,7.33333333 C5.33333333,3.651435 8.31810167,0.666666667 12,0.666666667 C15.6818983,0.666666667 18.6666667,3.651435 18.6666667,7.33333333 C18.6666667,11.0152317 15.6818983,14 12,14 Z M12,11.3333333 C14.209139,11.3333333 16,9.54247233 16,7.33333333 C16,5.12419433 14.209139,3.33333333 12,3.33333333 C9.790861,3.33333333 8,5.12419433 8,7.33333333 C8,9.54247233 9.790861,11.3333333 12,11.3333333 Z" id="path-1"></path>
    </defs>
    <g id="atoms/icons/user/black" stroke="none" stroke-width="1" fill="none" fill-rule="evenodd">
        <g id="user" transform="translate(4.000000, 2.000000)">
            <mask id="mask-2" fill="white">
                <use xlink:href="#path-1"></use>
            </mask>
            <use id="Combined-Shape" fill="#000000" fill-rule="nonzero" xlink:href="#path-1"></use>
        </g>
    </g>
</svg>